/* XPM */
static char *_3bd2debcea74d97c3fb32ec4292b63actIOtM1PbSCxCwd7[] = {
/* columns rows colors chars-per-pixel */
"80 80 17 1 ",
"  c #385206",
". c #40601C",
"X c #426320",
"o c #446828",
"O c #466A2C",
"+ c #466B2C",
"@ c #466B2D",
"# c #466C2E",
"$ c #476C2F",
"% c #476D30",
"& c #476D31",
"* c #486E32",
"= c #486F33",
"- c #496F34",
"; c #497035",
": c #497036",
"> c #497136",
/* pixels */
"o..............o$..............@@..............$O..............$o..............o",
".              X$              o@              Oo              $X              .",
".              X$              oo              Oo              $X              .",
".              X$              o$              Oo              $X              .",
".              X$              o@              Oo              $X              .",
".              X$              oo              Oo              $X              .",
".              X$              o$              Oo              $X              .",
".              X$              o$              Oo              $X              .",
".              X$              oo              Oo              $X              .",
".              X$              o$              Oo              $X              .",
".              X$              oO              Oo              $X              .",
".              X$              oO              Oo              $X              .",
".              X$              oO              Oo              $X              .",
".              X@              oO              Oo              $X              .",
".              X=              oO              $o              $X              .",
"oXXXXXXXXXXXXXX@-XXXXXXXXXXXXX.==.XXXXXXXXXXXXX==XXXXXXXXXXXXX.=@XXXXXXXXXXXXXXo",
"%$$$$$$$$$$$$$$=>$$$$$$$@=@$$$$--$$$$$$$$$$$$$$--$$$$$$$$$$$$$$>-%%$$$$$$$$$$$$%",
".              X$              o$              Oo              $X              .",
".              X$              oo              Oo              $X              .",
".              X$              o$              Oo              $X              .",
".              X$              o$              Oo              $X              .",
".              X$              oo              Oo              $X              .",
".              X$              o$              Oo              $X              .",
".              X$              oO              Oo              $X              .",
".              X$              oO              Oo              $X              .",
".              X$              oO              Oo              $X              .",
".              X$              oO              Oo              $X              .",
".              X$              oO              Oo              $X              .",
".              X$              oO              $o              $X              .",
".              X$              oO              oo              $X              .",
".              X$              oO              $o              $X              .",
"@oooooooooooooo%>oooooooooooooo==oooooooooooooo--oooooooooooooo-%oooooooooooooo@",
"$OOOOOOOOOOOOOO--OOOOOOOOOOOOOO--$OOOOOOOOOOOOO==$OOOOOOOOOOOOO--OOOOOOOOOOOOOO@",
".              X%              oO              Oo              $X              .",
".              X%              oO              Oo              $X              .",
".              X$              oO              Oo              $X              .",
".              X$              oO              Oo              $X              .",
".              X$              oO              Oo              $X              .",
".              X$              oO              Oo              $X              .",
".              X$              oO              Oo              $X              .",
".              X$              oO              Oo              $X              .",
".              X$              oO              Oo              $X              .",
".              X$              oO              Oo              $X              .",
".              X$              oO              Oo              $X              .",
".              X$              oO              Oo              $X              .",
".              X$              oO              Oo              $X              .",
".              X$              oO              $o              $X              .",
"@OOOOOOOOOOOOOO%-OOOOOOOOOOOOOO-=OOOOOOOOOOOOOO-=OOOOOOOOOOOOO$-%OOOOOOOOOOOOOO@",
"@oooooooooooooo%-oooooooooooooo--oooooooooooooo==oooooooooooooo-%oooooooooooooo$",
".              X$              oO              Oo              $X              .",
".              X$              oO              Oo              $X              .",
".              X$              oO              Oo              $X              .",
".              X$              oO              Oo              $X              .",
".              X$              oO              Oo              $X              .",
".              X$              oO              Oo              $X              .",
".              X$              oO              Oo              $X              .",
".              X$              oO              Oo              $X              .",
".              X$              oO              Oo              $X              .",
".              X$              oO              Oo              $X              .",
".              X$              oO              Oo              $X              .",
".              X$              oO              Oo              $X              .",
".              X%              oO              Oo              $X              .",
".              X%              oO              $o              $X              .",
"%$$$$$$$$$$$$$%--$$$$$$$$$$$%%%--$$$$$$$$$$$$$%--$$$$$$$$$$$$%%-%$$$$$$$$$$$$$%%",
"oXXXXXXXXXXXXXX@=XXXXXXXXXXXXXX%%XXXXXXXXXXXXXX%%XXXXXXXXXXXXXX%$XXXXXXXXXXXXXXo",
".              X$              oO              Oo              $X              .",
".              X$              oO              Oo              $X              .",
".              X$              oO              Oo              $X              .",
".              X$              oO              Oo              $X              .",
".              X$              oO              Oo              $X              .",
".              X$              oO              Oo              $X              .",
".              X$              oO              @o              $X              .",
".              X$              oO              Oo              $X              .",
".              X$              oO              Oo              $X              .",
".              X$              oO              Oo              $X              .",
".              X$              oO              Oo              $X              .",
".              X$              oO              Oo              $X              .",
".              X$              oO              Oo              %X              .",
".              X$              o@              Oo              %X              .",
"o..............o%..............@@..............@$..............%o..............o"
};
